<svg width="105" height="106" viewBox="0 0 105 106" fill="none" xmlns="http://www.w3.org/2000/svg">
<path d="M87.4402 16.814C88.4046 11.2259 89.8225 7.70721 91.3863 7.702C94.3107 7.702 96.6774 19.9053 96.6774 34.9547C96.6774 50.0042 94.3055 62.2127 91.3811 62.2127C90.1822 62.2127 89.0718 60.1275 88.1804 56.6662C86.773 69.3803 83.8486 78.1171 80.4654 78.1171C77.859 78.1171 75.4976 72.8677 73.9181 64.595C72.839 80.3273 70.1284 91.4984 66.9642 91.4984C64.9781 91.4984 63.1588 87.0779 61.8191 79.8686C60.2083 94.7408 56.4759 105.166 52.1284 105.166C47.7809 105.166 44.0433 94.7408 42.4325 79.8686C41.1033 87.0779 39.3048 91.4984 37.2927 91.4984C34.118 91.4984 31.4126 80.3325 30.3335 64.595C28.7697 72.8677 26.4135 78.1171 23.7862 78.1171C20.4031 78.1171 17.4787 69.3803 16.066 56.6662C15.185 60.1484 14.0747 62.2127 12.8705 62.2127C9.94089 62.2127 7.56905 50.0146 7.56905 34.9547C7.56905 19.8948 9.9461 7.68636 12.8809 7.68636C14.4448 7.68636 15.8523 11.2102 16.8323 16.7984C18.3857 7.16508 20.9243 0.909668 23.7914 0.909668C27.1954 0.909668 30.1459 9.7715 31.5429 22.6368C32.9087 13.2537 34.973 7.30582 37.277 7.30582C40.5298 7.30582 43.2926 19.0451 44.3196 35.4187C46.2588 27.026 49.0528 21.761 52.1284 21.761C55.204 21.761 58.0085 27.0312 59.9477 35.4187C60.9902 19.0451 63.7374 7.30582 66.9902 7.30582C69.3047 7.30582 71.369 13.2745 72.7243 22.6368C74.1214 9.7715 77.0719 0.909668 80.4811 0.909668C83.3325 0.909668 85.8764 7.16508 87.4402 16.814ZM2.99217 44.4421C1.34491 44.463 0 39.0155 0 32.2753C0 25.5351 1.34491 20.0929 3.0026 20.0929C4.66028 20.0929 6.01562 25.5351 6.01562 32.2753C6.01562 39.0155 4.69156 44.463 3.0026 44.463L2.99217 44.4421ZM101.244 44.4421C99.5757 44.4421 98.236 38.9947 98.236 32.2545C98.236 25.5143 99.5757 20.0721 101.244 20.0721C102.912 20.0721 104.257 25.5351 104.257 32.2753C104.257 39.0155 102.912 44.463 101.254 44.463L101.244 44.4421Z" fill="#A238FF"/>
</svg>
